<?xml version="1.0" encoding="UTF-8"?>
<!-- Generated by Pixelmator Pro 3.1.1 -->
<svg width="500" height="377" viewBox="0 0 500 377" xmlns="http://www.w3.org/2000/svg" xmlns:xlink="http://www.w3.org/1999/xlink">
    <g id="VMware-Operator-Logo">
        <g id="Cloud">
            <path id="Path" fill="#000000" stroke="none" d="M 251.199997 20.200012 C 248.266663 21.133331 241.46666 22.333344 236.266663 22.733337 C 230.933334 23.266663 222.933334 25.266663 218.266663 27 C 207.333328 31.533325 190.53334 43.533325 184.266663 51.399994 C 181.600006 55 177.600006 59.133331 175.600006 60.866669 C 172 63.933319 171.866669 63.933319 167.066666 61.666656 C 160.800003 58.600006 140.933334 56.600006 128 57.533325 C 98 59.666656 71.333336 77.399994 66.26667 98.200012 C 64.800003 104.466675 64.533333 104.733337 56.400002 108.333344 C 41.066666 115 25.733334 134.866669 19.200001 156.46666 C 17.466667 161.933334 16.799999 168.866669 16.666666 179.666672 C 16.666666 197.53334 19.6 209.266663 27.066668 220.46666 L 31.6 227.266663 L 26.4 231.53334 C 8.533334 246.46666 10.4 280.200012 30.133333 302.200012 C 36.933334 309.666656 47.733334 315.666656 55.733334 316.333344 C 58.666668 316.466675 62.799999 317.93335 64.933334 319.399994 C 70.133331 323.133331 82.800003 327.133331 97.599998 329.93335 C 114.933334 333.133331 164.53334 333.133331 188.399994 329.799988 C 211.066666 326.733337 230.800003 321.93335 232.933334 318.866669 C 234.399994 316.866669 234 316.06665 229.600006 312.866669 C 226.933334 310.866669 223.600006 307.133331 222.133331 304.466675 L 219.600006 299.799988 L 223.46666 295.93335 C 232 287.533325 242.666672 280.06665 253.333328 275 C 259.600006 272.06665 264.799988 269.666656 265.066681 269.533325 C 265.600006 269.133331 260.133331 243.666672 259.200012 242.066666 C 258.799988 241.399994 257.866669 234.600006 257.200012 227 C 256.533325 219 254.933334 210.199997 253.333328 206.333328 C 248.53334 194.199997 249.600006 192.199997 264.799988 184.600006 C 272 181 280.799988 178.46666 311.333344 171.666672 C 329.600006 167.53334 330.533325 167.399994 353.333344 168.199997 C 376.933319 169 434.799988 167.266663 438.799988 165.666672 C 441.600006 164.600006 446.266663 172.600006 452.133331 188.733337 C 454.399994 195.133331 459.600006 207.266663 463.600006 215.53334 C 467.600006 223.933334 474.266663 240.733337 478.266663 252.866669 C 482.266663 265.133331 486.266663 275.799988 487.200012 276.733337 C 489.866669 279.399994 493.066681 277.266663 496.533325 270.333344 C 498.933319 265.533325 499.600006 262.466675 499.200012 257.533325 C 497.200012 235.53334 495.600006 223.933334 493.200012 215.399994 C 491.066681 207.800003 490.666656 203.933334 491.466675 197.666672 C 493.466675 181.933334 491.066681 168.46666 482.399994 147.266663 C 473.466675 125.266663 468.933319 119.266663 452 106.466675 C 442.933319 99.666656 442 98.466675 441.733337 93.933319 C 440.533325 73 403.066681 47.533325 365.733337 42.066681 C 352.533325 40.200012 339.066681 41.933319 333.200012 46.200012 C 331.066681 47.799988 328.133331 49 326.399994 49 C 324.666656 49 322.533325 49.533325 321.466675 50.200012 C 320 51.133331 318.666656 50.066681 316 45.933319 C 310.533325 37.399994 299.600006 27.933319 289.600006 23.266663 C 281.866669 19.533325 279.066681 19 268.666656 18.733337 C 261.466675 18.466675 254.53334 19.133331 251.199997 20.200012 Z M 316.799988 56.200012 C 318.799988 57.799988 319.066681 58.733337 317.866669 60.600006 C 314.399994 66.466675 282 72.866669 274.933319 69.133331 C 271.600006 67.399994 271.066681 62.200012 273.866669 59.799988 C 278.133331 56.200012 286.533325 54.466675 300.133331 54.466675 C 310.399994 54.333344 314.799988 54.866669 316.799988 56.200012 Z M 327.600006 98.333344 C 339.466675 103.533325 350.666656 118.866669 352.666656 133.133331 C 353.600006 139.266663 351.333344 154.333328 349.600006 154.333328 C 349.066681 154.333328 347.066681 153.266663 345.333344 152.066666 C 343.466675 150.866669 342.533325 150.46666 343.066681 151.133331 C 343.733337 151.800003 340.399994 153 335.466675 153.933334 C 325.333344 155.800003 319.600006 159.266663 316.266663 165.800003 L 313.866669 170.333328 L 307.066681 167 C 289.333344 158.066666 279.200012 136.199997 284.533325 117.933319 C 290.266663 98.333344 308.399994 90.200012 327.600006 98.333344 Z M 126 105.533325 C 134 107.933319 133.199997 111.133331 122.933334 117.133331 C 115.599998 121.399994 109.599998 123.266663 95.066666 125.53334 C 89.466667 126.46666 85.066666 122.866669 86.666664 118.733337 C 87.866669 115.799988 97.73333 109.266663 102.400002 108.333344 C 103.866669 108.066681 106.800003 107 108.933334 105.799988 C 113.333336 103.399994 118.666664 103.266663 126 105.533325 Z M 170.666672 131 C 183.866669 135.399994 197.733337 149.800003 202.666672 164.199997 C 206.800003 176.46666 206.133331 197.933334 201.600006 195.133331 C 199.866669 194.066666 186 197.800003 181.866669 200.46666 C 177.333328 203.53334 175.866669 206.600006 175.733337 213.666672 C 175.733337 219.266663 175.46666 219.666672 171.46666 220.333328 C 169.199997 220.866669 164.800003 220.199997 161.46666 219.133331 C 158.266663 217.933334 154.399994 217 152.800003 217 C 148.53334 217 136.666672 208.333328 130.800003 201 C 116 182.333328 115.599998 154.600006 129.733337 139.933334 C 140.933334 128.333328 153.866669 125.53334 170.666672 131 Z M 231.199997 256.466675 C 231.733337 257.666656 231.333328 259.399994 230.53334 260.466675 C 223.600006 268.866669 186 269.266663 186 261 C 186 259.399994 189.333328 258.733337 201.333328 257.533325 C 209.733337 256.600006 218.133331 255.666656 220 255.266663 C 227.066666 254.066666 230.399994 254.333344 231.199997 256.466675 Z"/>
            <path id="path1" fill="#000000" stroke="none" d="M 303.333344 103.133331 C 293.600006 108.200012 289.333344 115.799988 289.333344 127.933334 C 289.466675 137.53334 291.466675 144.199997 296.666656 151.800003 C 301.200012 158.199997 302.666656 158.333328 302.666656 152.600006 C 302.666656 144.866669 305.333344 138.600006 311.333344 131.933334 C 318 124.600006 326.133331 120.466675 331.733337 121.800003 C 333.733337 122.333328 337.600006 124.866669 340.266663 127.399994 C 343.066681 130.066666 345.733337 131.800003 346.133331 131.266663 C 346.666656 130.733337 346.266663 127.800003 345.200012 124.733337 C 342.799988 117 330.266663 104.466675 323.200012 102.466675 C 315.866669 100.466675 308 100.600006 303.333344 103.133331 Z"/>
            <path id="path2" fill="#000000" stroke="none" d="M 145.199997 135.133331 C 131.866669 139.133331 121.73333 155.399994 123.066666 170.333328 C 124.133331 182.066666 128.666672 192.199997 136.933334 201 C 140.933334 205.399994 144.666672 209 145.199997 209 C 145.733337 209 146.133331 205 146.133331 199.933334 C 146 192.199997 146.666672 189.800003 150.53334 182.600006 C 159.066666 166.733337 173.46666 157.53334 188 158.600006 C 191.733337 158.733337 194.666672 158.600006 194.666672 158.199997 C 194.666672 155.933334 185.866669 145.800003 180.399994 141.666672 C 169.333328 133.53334 157.46666 131.266663 145.199997 135.133331 Z"/>
        </g>
        <g id="Laptop">
            <g id="Lid">
                <g id="Lid-with-VM-Logo">
                    <path id="Lid-with-Cutout-for-Logo" fill="#000000" fill-rule="evenodd" stroke="none" d="M 420 315 L 483 295 L 484 292 L 470 251 L 462 232 L 452 209 L 444 189 L 439 173 L 428 175 L 400 175 L 389 177 L 369 177 L 326 180 L 314 180 L 279 188 L 269 191 L 265 193 L 261 195 L 261 201 L 265 219 L 269 239 L 278 266 L 284 288 L 288 302 L 293 322 L 297 337 L 298 344 L 299 350 L 309 347 L 338 339 L 373 329 L 400 321 L 420 315 L 403 262 L 400 263 L 397 265 L 396 268 L 397 272 L 398 278 L 395 281 L 387 284 L 377 287 L 365 290 L 356 292 L 350 292 L 347 289 L 345 284 L 343 277 L 338 260 L 337 253.801636 L 337 247 L 338 246 L 341 244 L 343 243 L 345.194763 241.896561 L 348.369507 240.21051 L 350 239 L 350 237 L 350 237 L 350 236 L 349 232 L 349 230.51886 L 349 229 L 349 227.953094 L 349 227 L 349 226 L 351 224 L 362 220 L 383 215 L 395 212 L 399 216 L 408.460114 252.120407 L 410 258 L 408.044556 259.838043 L 403 262 L 420 315 Z"/>
                    <g id="VMware-VM-Logo">
                        <path id="Path-copy" fill="#000000" stroke="none" d="M 367 247 L 372 246 L 375 245 L 378 246 L 380 250 L 382 255 L 383 258 L 382 259 L 378 260 L 374 261 L 371 261 L 369 260 L 368 260 L 366 255 L 365 251 L 365 249 L 366 248 L 367 247 Z"/>
                        <path id="path3" fill="#000000" fill-rule="evenodd" stroke="none" d="M 360 236 L 361 233 L 362 231 L 365 230 L 370 228 L 375 227 L 379 226 L 383 225 L 383 225 L 385 225 L 387 224 L 389 225 L 390 226 L 391 228 L 393 234 L 395 241 L 396 247 L 397 249 L 396 252 L 395 254 L 393 255 L 391 255 L 391 252 L 390 248 L 388 242 L 387 238 L 386 235 L 384 234 L 383 233 L 381 233 L 377 233 L 373 234 L 370 235 L 365 236 L 362 236 L 360 236 Z"/>
                        <path id="path4" fill="#000000" fill-rule="evenodd" stroke="none" d="M 353.646667 251.724152 L 353.771729 251.973969 C 355.428558 255.297272 356.800293 259.298401 357.759094 262.879639 C 358.572388 265.91275 359.441193 271.270813 363.334534 272.173462 C 370.19693 273.763824 377.127533 269.002228 384.17334 269.062683 C 384.50412 269.065521 385.052155 269.236877 385.028107 269.566772 C 384.380432 278.280151 370.64679 276.45755 364.839539 279.348328 C 359.479309 282.017059 356.09967 279.931763 354.095215 275.221191 C 351.610291 269.384338 348.54715 260.721588 348.632172 254.270264 C 348.672882 251.194641 352.039551 248.514069 353.646667 251.724152 Z"/>
                    </g>
                </g>
                <path id="Lid-sans-Logo" fill="#000000" stroke="none" visibility="visible" d="M 353 179.035965 C 339.173096 178.549164 326.723663 179.25705 313 180 C 304.33728 180.468964 295.817078 183.949936 286 185.835968 C 276.266663 187.702637 260 193.702637 260 195.435959 C 260 195.835968 261.333344 202.902634 262.799988 210.902634 C 266.133331 228.235962 269.066681 239.569305 273.733337 252.369308 C 275.733337 257.569275 279.600006 272.235962 282.666656 285.03595 C 285.600006 297.835938 290.799988 316.635956 294.133331 326.635956 C 298.133331 338.635956 299.866669 345.969269 299.333344 347.835938 C 298.533325 350.235962 298.799988 350.635956 300.799988 349.969269 C 302.266663 349.569275 313.866669 346.502625 326.666656 343.03595 C 339.466675 339.702606 371.600006 329.702606 398 321.03595 C 424.399994 312.369293 454.133331 303.03595 464 300.369293 C 473.866669 297.702606 482.799988 295.302612 483.600006 295.03595 C 485.466675 294.369293 476.266663 266.902649 467.600006 247.035965 C 455.066681 217.835968 443.466675 188.102631 441.200012 179.302628 C 439.600006 172.635971 438.133331 171.969299 430.666656 174.369293 C 428.799988 174.902634 421.066681 175.569305 413.333344 175.569305 C 410.007996 175.626633 404.055542 174.787842 400 175 C 394.623993 175.281235 391.133331 176.65596 387.333344 177.035965 C 382.433319 177.535965 358 179.035965 358 179.035965 C 356.170654 179.091965 353.534485 178.35817 352 179.035965"/>
            </g>
            <g id="Keyboard">
                <path id="path5" fill="#000000" stroke="none" d="M 259.200012 277.266663 C 256.266663 279.799988 250.399994 284.06665 246 286.600006 C 241.600006 289.266663 235.600006 293.533325 232.666672 296.06665 L 227.333328 300.733337 L 230 303.666656 C 231.46666 305.266663 236 308.866669 240 311.666656 C 244 314.466675 256.666656 323.666656 268 332.200012 C 293.466675 351.266663 296.933319 351.933319 289.200012 336.733337 C 287.866669 334.06665 282.266663 319.133331 276.666656 303.533325 C 271.200012 287.93335 266.133331 274.600006 265.466675 273.93335 C 264.799988 273.266663 262.266663 274.600006 259.200012 277.266663 Z"/>
            </g>
        </g>
    </g>
</svg>
